<?xml version="1.0" encoding="UTF-8" standalone="no"?>
<!-- Created with Inkscape (http://www.inkscape.org/) -->

<svg
   width="160.61115mm"
   height="43.1059mm"
   viewBox="0 0 160.61115 43.1059"
   version="1.1"
   id="svg1"
   xml:space="preserve"
   inkscape:version="1.4 (86a8ad7, 2024-10-11)"
   sodipodi:docname="ER-logo.svg"
   xmlns:inkscape="http://www.inkscape.org/namespaces/inkscape"
   xmlns:sodipodi="http://sodipodi.sourceforge.net/DTD/sodipodi-0.dtd"
   xmlns="http://www.w3.org/2000/svg"
   xmlns:svg="http://www.w3.org/2000/svg"><sodipodi:namedview
     id="namedview1"
     pagecolor="#9d9d9d"
     bordercolor="#000000"
     borderopacity="0.25"
     inkscape:showpageshadow="2"
     inkscape:pageopacity="0.0"
     inkscape:pagecheckerboard="0"
     inkscape:deskcolor="#d1d1d1"
     inkscape:document-units="mm"
     inkscape:zoom="1"
     inkscape:cx="364"
     inkscape:cy="113.5"
     inkscape:window-width="1920"
     inkscape:window-height="1017"
     inkscape:window-x="1912"
     inkscape:window-y="-8"
     inkscape:window-maximized="1"
     inkscape:current-layer="layer5"
     showgrid="false" /><defs
     id="defs1" /><g
     inkscape:groupmode="layer"
     id="layer4"
     inkscape:label="www"
     transform="translate(-23.618713,-88.188932)"
     style="fill:#ffffff"><path
       d="m 47.39672,112.41825 q -0.06243,0 -0.112369,-0.0312 -0.0437,-0.0312 -0.06243,-0.0874 l -1.011325,-3.02774 q -0.02497,-0.13734 0.01249,-0.19976 0.03746,-0.0687 0.131098,-0.0687 0.04994,0 0.09988,0.0312 0.04994,0.025 0.07491,0.0812 l 0.923927,2.78426 h -0.08116 l 0.849015,-2.74681 q 0.01873,-0.0687 0.06867,-0.10612 0.04994,-0.0437 0.118612,-0.0437 0.06867,0 0.11237,0.0437 0.04994,0.0375 0.07491,0.10612 l 0.873985,2.74681 h -0.11237 l 0.923927,-2.78426 q 0.04994,-0.11237 0.174797,-0.11237 0.11237,0 0.149826,0.0874 0.0437,0.0874 0,0.18103 l -1.005083,3.02774 q -0.01873,0.0562 -0.06867,0.0874 -0.0437,0.0312 -0.112369,0.0312 -0.06243,0 -0.11237,-0.0312 -0.04994,-0.0312 -0.06243,-0.0874 l -0.892714,-2.77178 h 0.08116 l -0.8615,2.77178 q -0.02497,0.0624 -0.07491,0.0936 -0.0437,0.025 -0.09988,0.025 z"
       id="text51"
       style="font-weight:300;font-size:6.24275px;line-height:23.6;font-family:Comfortaa;-inkscape-font-specification:'Comfortaa Light';letter-spacing:0px;stroke-width:0.0650286;fill:#ffffff"
       inkscape:label="w"
       transform="scale(0.87624396,1.1412347)"
       aria-label="w" /><path
       d="m 59.249458,112.41825 q -0.06243,0 -0.11237,-0.0312 -0.0437,-0.0312 -0.06243,-0.0874 l -1.011326,-3.02774 q -0.02497,-0.13734 0.01249,-0.19976 0.03746,-0.0687 0.131098,-0.0687 0.04994,0 0.09988,0.0312 0.04994,0.025 0.07491,0.0812 l 0.923927,2.78426 h -0.08116 l 0.849014,-2.74681 q 0.01873,-0.0687 0.06867,-0.10612 0.04994,-0.0437 0.118612,-0.0437 0.06867,0 0.11237,0.0437 0.04994,0.0375 0.07491,0.10612 l 0.873985,2.74681 h -0.11237 l 0.923927,-2.78426 q 0.04994,-0.11237 0.174797,-0.11237 0.11237,0 0.149826,0.0874 0.0437,0.0874 0,0.18103 l -1.005082,3.02774 q -0.01873,0.0562 -0.06867,0.0874 -0.0437,0.0312 -0.112369,0.0312 -0.06243,0 -0.11237,-0.0312 -0.04994,-0.0312 -0.06243,-0.0874 l -0.892713,-2.77178 h 0.08115 l -0.861499,2.77178 q -0.02497,0.0624 -0.07491,0.0936 -0.0437,0.025 -0.09988,0.025 z"
       id="text52"
       style="font-weight:300;font-size:6.24275px;line-height:23.6;font-family:Comfortaa;-inkscape-font-specification:'Comfortaa Light';letter-spacing:0px;stroke-width:0.0650286;fill:#ffffff"
       inkscape:label="w"
       transform="scale(0.87624395,1.1412347)"
       aria-label="w" /><path
       d="m 71.050209,112.41825 q -0.06243,0 -0.11237,-0.0312 -0.0437,-0.0312 -0.06243,-0.0874 l -1.011326,-3.02774 q -0.02497,-0.13734 0.01249,-0.19976 0.03746,-0.0687 0.131097,-0.0687 0.04994,0 0.09988,0.0312 0.04994,0.025 0.07491,0.0812 l 0.923927,2.78426 h -0.08115 l 0.849014,-2.74681 q 0.01873,-0.0687 0.06867,-0.10612 0.04994,-0.0437 0.118612,-0.0437 0.06867,0 0.11237,0.0437 0.04994,0.0375 0.07491,0.10612 l 0.873985,2.74681 h -0.11237 l 0.923927,-2.78426 q 0.04994,-0.11237 0.174797,-0.11237 0.11237,0 0.149826,0.0874 0.0437,0.0874 0,0.18103 l -1.005083,3.02774 q -0.01873,0.0562 -0.06867,0.0874 -0.0437,0.0312 -0.112369,0.0312 -0.06243,0 -0.11237,-0.0312 -0.04994,-0.0312 -0.06243,-0.0874 l -0.892714,-2.77178 h 0.08116 l -0.861499,2.77178 q -0.02497,0.0624 -0.07491,0.0936 -0.0437,0.025 -0.09988,0.025 z"
       id="text53"
       style="font-weight:300;font-size:6.24275px;line-height:23.6;font-family:Comfortaa;-inkscape-font-specification:'Comfortaa Light';letter-spacing:0px;stroke-width:0.0650286;fill:#ffffff"
       inkscape:label="w"
       transform="scale(0.87624395,1.1412347)"
       aria-label="w" /><path
       d="m 163.5389,131.55979 q -0.11742,0 -0.19748,-0.0801 -0.0747,-0.0747 -0.0747,-0.19214 0,-0.11742 0.0801,-0.19214 0.0801,-0.0747 0.19214,-0.0747 0.11208,0 0.1868,0.0801 0.0801,0.0747 0.0801,0.1868 0,0.11208 -0.0801,0.19214 -0.0747,0.0801 -0.1868,0.0801 z"
       id="text56"
       style="font-weight:300;font-size:5.33729px;line-height:23.6;font-family:Comfortaa;-inkscape-font-specification:'Comfortaa Light';letter-spacing:0px;stroke-width:0.0555968;fill:#ffffff"
       inkscape:label="dot"
       transform="scale(1.024896,0.97570875)"
       aria-label="." /><path
       d="m 69.638386,131.55979 q -0.117421,0 -0.19748,-0.0801 -0.07472,-0.0747 -0.07472,-0.19214 0,-0.11742 0.08006,-0.19214 0.08006,-0.0747 0.192143,-0.0747 0.112083,0 0.186805,0.0801 0.08006,0.0747 0.08006,0.1868 0,0.11208 -0.08006,0.19214 -0.07472,0.0801 -0.186805,0.0801 z"
       id="text57"
       style="font-weight:300;font-size:5.33729px;line-height:23.6;font-family:Comfortaa;-inkscape-font-specification:'Comfortaa Light';letter-spacing:0px;stroke-width:0.0555968;fill:#ffffff"
       inkscape:label="dot"
       transform="scale(1.024896,0.97570875)"
       aria-label="." /><path
       d="m 97.791827,101.82339 q -0.05139,0 -0.08697,-0.0316 -0.03163,-0.0356 -0.03163,-0.087 v -2.850271 q 0,-0.05139 0.03163,-0.08302 0.03558,-0.03558 0.08697,-0.03558 h 1.901499 q 0.04744,0 0.08302,0.03558 0.03558,0.03163 0.03558,0.08302 0,0.04744 -0.03558,0.08302 -0.03558,0.03558 -0.08302,0.03558 h -1.782902 v 1.185961 h 1.308515 q 0.05139,0 0.08302,0.0356 0.03558,0.0316 0.03558,0.083 0,0.0514 -0.03558,0.087 -0.03163,0.0356 -0.08302,0.0356 h -1.308515 v 1.18596 h 1.782902 q 0.04744,0 0.08302,0.0356 0.03558,0.0356 0.03558,0.083 0,0.0514 -0.03558,0.087 -0.03558,0.0316 -0.08302,0.0316 z"
       id="text58"
       style="font-weight:300;font-size:3.95322px;line-height:23.6;font-family:Comfortaa;-inkscape-font-specification:'Comfortaa Light';letter-spacing:0px;stroke-width:0.0411793;fill:#ffffff"
       inkscape:label="w"
       transform="scale(0.79366234,1.2599817)"
       aria-label="E" /><path
       d="m 97.127885,114.07193 q -0.278903,0 -0.513536,-0.0753 -0.230206,-0.0797 -0.398434,-0.22135 -0.168228,-0.1461 -0.265622,-0.34089 -0.02656,-0.0531 -0.0044,-0.10182 0.02656,-0.0487 0.08411,-0.0664 0.0487,-0.0177 0.0974,0.004 0.0487,0.0221 0.07526,0.0708 0.07969,0.14166 0.208071,0.24791 0.132811,0.10625 0.309893,0.1638 0.181508,0.0531 0.407287,0.0531 0.252342,0 0.43385,-0.0841 0.185936,-0.0841 0.283331,-0.24791 0.101822,-0.1638 0.101822,-0.39844 0,-0.29218 -0.212498,-0.4914 -0.208071,-0.20364 -0.637494,-0.26119 -0.495829,-0.0708 -0.774732,-0.31875 -0.278904,-0.25234 -0.278904,-0.61093 0,-0.2612 0.128385,-0.45599 0.132811,-0.19479 0.367444,-0.30104 0.23906,-0.11067 0.548953,-0.11067 0.230206,0 0.424996,0.0753 0.194789,0.0753 0.340882,0.19921 0.146092,0.11953 0.225779,0.25235 0.03099,0.0487 0.01328,0.10624 -0.01328,0.0531 -0.07083,0.0753 -0.0487,0.0177 -0.0974,0.004 -0.0487,-0.0177 -0.07969,-0.062 -0.06198,-0.093 -0.159374,-0.18151 -0.0974,-0.0885 -0.243487,-0.14609 -0.146092,-0.0576 -0.354163,-0.0576 -0.363017,0 -0.571088,0.1638 -0.208071,0.1638 -0.208071,0.46484 0,0.15937 0.08411,0.29218 0.08854,0.12839 0.274476,0.22136 0.185936,0.093 0.473693,0.14166 0.571089,0.0974 0.819003,0.35417 0.252341,0.25234 0.252341,0.64634 0,0.23021 -0.07969,0.41614 -0.07526,0.18594 -0.221352,0.31432 -0.141665,0.12839 -0.340882,0.19922 -0.199217,0.0664 -0.442704,0.0664 z"
       id="text59"
       style="font-weight:300;font-size:4.42704px;line-height:23.6;font-family:Comfortaa;-inkscape-font-specification:'Comfortaa Light';letter-spacing:0px;stroke-width:0.0461149;fill:#ffffff"
       inkscape:label="w"
       transform="scale(0.88878856,1.125127)"
       aria-label="S" /><path
       d="m 118.77502,102.27651 q -0.31754,0 -0.59936,-0.12305 -0.27785,-0.12701 -0.49219,-0.34532 -0.21434,-0.22228 -0.33739,-0.50807 -0.12305,-0.28976 -0.12305,-0.61524 0,-0.32151 0.11908,-0.6073 0.11908,-0.289753 0.32945,-0.508063 0.21434,-0.222279 0.49616,-0.345327 0.28182,-0.127016 0.6073,-0.127016 0.27388,0 0.51997,0.08732 0.2461,0.08732 0.46044,0.265941 0.0357,0.02778 0.0357,0.07939 0,0.04763 -0.0318,0.08732 -0.0318,0.03572 -0.0873,0.03572 -0.0159,0 -0.0318,-0.004 -0.0159,-0.0079 -0.0318,-0.01588 -0.0159,-0.01191 -0.0357,-0.02779 -0.15877,-0.142893 -0.3612,-0.206402 -0.20243,-0.06351 -0.43662,-0.06351 -0.26594,0 -0.5041,0.11114 -0.23815,0.10717 -0.42074,0.297695 -0.18259,0.186556 -0.28579,0.428682 -0.1032,0.24212 -0.1032,0.51203 0,0.27785 0.1032,0.52395 0.1032,0.24609 0.28182,0.43265 0.18259,0.18655 0.42074,0.29372 0.23816,0.1032 0.50807,0.1032 0.23419,0 0.43662,-0.0714 0.2064,-0.0714 0.38502,-0.21831 0.0318,-0.0278 0.0754,-0.0198 0.0437,0.008 0.0754,0.0397 0.0318,0.0318 0.0318,0.0834 0,0.0238 -0.004,0.0437 -0.004,0.0199 -0.0238,0.0397 -0.19449,0.1945 -0.4525,0.26991 -0.25403,0.0714 -0.52394,0.0714 z"
       id="text60"
       style="font-weight:300;font-size:3.96927px;line-height:23.6;font-family:Comfortaa;-inkscape-font-specification:'Comfortaa Light';letter-spacing:0px;stroke-width:0.0413465;fill:#ffffff"
       inkscape:label="w"
       transform="scale(0.79688489,1.2548864)"
       aria-label="C" /><path
       d="m 119.22212,109.16463 q -0.0805,0 -0.11444,-0.0636 -0.0297,-0.0636 0,-0.11867 l 1.28419,-3.03882 q 0.0339,-0.089 0.12291,-0.089 0.0848,0 0.12291,0.089 l 1.28842,3.03882 q 0.0339,0.0593 -0.004,0.12291 -0.0381,0.0593 -0.11019,0.0593 -0.0424,0 -0.072,-0.017 -0.0254,-0.0212 -0.0466,-0.0636 l -1.24604,-2.97101 h 0.13562 l -1.2418,2.97101 q -0.017,0.0424 -0.0466,0.0636 -0.0297,0.017 -0.072,0.017 z m 0.31363,-0.8307 0.10171,-0.22886 h 1.76311 l 0.0975,0.22886 z"
       id="text61"
       style="font-weight:300;font-size:4.23824px;line-height:23.6;font-family:Comfortaa;-inkscape-font-specification:'Comfortaa Light';letter-spacing:0px;stroke-width:0.0441482;fill:#ffffff"
       inkscape:label="w"
       transform="scale(0.85088368,1.1752488)"
       aria-label="A" /><path
       d="m 128.01324,110.17561 q -0.0556,0 -0.0941,-0.0342 -0.0342,-0.0385 -0.0342,-0.0941 v -3.08407 q 0,-0.0599 0.0342,-0.0941 0.0385,-0.0342 0.0941,-0.0342 h 0.8555 q 0.31226,0 0.5518,0.13688 0.24381,0.13688 0.38069,0.3807 0.13688,0.23954 0.13688,0.5518 0,0.31225 -0.13688,0.55607 -0.13688,0.24382 -0.38069,0.3807 -0.23954,0.13688 -0.5518,0.13688 h -0.72717 v 1.06937 q 0,0.0556 -0.0342,0.0941 -0.0342,0.0342 -0.0941,0.0342 z m 0.12833,-1.45434 h 0.72717 q 0.23954,0 0.41919,-0.10266 0.18394,-0.10694 0.2866,-0.29087 0.10693,-0.18393 0.10693,-0.42347 0,-0.23954 -0.10693,-0.4192 -0.10266,-0.18393 -0.2866,-0.28659 -0.17965,-0.10694 -0.41919,-0.10694 h -0.72717 z"
       id="text62"
       style="font-weight:300;font-size:4.27749px;line-height:23.6;font-family:Comfortaa;-inkscape-font-specification:'Comfortaa Light';letter-spacing:0px;stroke-width:0.0445571;fill:#ffffff"
       inkscape:label="w"
       transform="scale(0.85876374,1.1644646)"
       aria-label="P" /><path
       d="m 148.32998,101.97874 q -0.0515,0 -0.0871,-0.0317 -0.0317,-0.0356 -0.0317,-0.0871 v -2.85462 q 0,-0.05147 0.0317,-0.08314 0.0356,-0.03563 0.0871,-0.03563 h 1.9044 q 0.0475,0 0.0831,0.03563 0.0356,0.03167 0.0356,0.08314 0,0.04751 -0.0356,0.08314 -0.0356,0.03563 -0.0831,0.03563 h -1.78562 v 1.18777 h 1.31051 q 0.0515,0 0.0831,0.0356 0.0356,0.0317 0.0356,0.0831 0,0.0515 -0.0356,0.0871 -0.0317,0.0356 -0.0831,0.0356 h -1.31051 v 1.18777 h 1.78562 q 0.0475,0 0.0831,0.0356 0.0356,0.0356 0.0356,0.0831 0,0.0515 -0.0356,0.0871 -0.0356,0.0317 -0.0831,0.0317 z"
       id="text63"
       style="font-weight:300;font-size:3.95925px;line-height:23.6;font-family:Comfortaa;-inkscape-font-specification:'Comfortaa Light';letter-spacing:0px;stroke-width:0.0412421;fill:#ffffff"
       inkscape:label="w"
       transform="scale(0.79487328,1.2580622)"
       aria-label="E" /><path
       d="m 140.2747,115.17034 q -0.0581,0 -0.0984,-0.0358 -0.0358,-0.0402 -0.0358,-0.0984 v -3.22388 q 0,-0.0626 0.0358,-0.0984 0.0402,-0.0358 0.0984,-0.0358 h 0.85404 q 0.32641,0 0.57681,0.13861 0.25487,0.13414 0.39795,0.37113 0.14309,0.23698 0.14309,0.54998 0,0.30406 -0.14309,0.54104 -0.14308,0.23698 -0.39795,0.37113 -0.2504,0.13414 -0.57681,0.13414 h -0.7199 v 1.25199 q 0,0.0581 -0.0358,0.0984 -0.0358,0.0358 -0.0984,0.0358 z m 1.87799,0 q -0.0492,0 -0.076,-0.0179 -0.0224,-0.0224 -0.0447,-0.0537 l -0.88981,-1.42191 0.27723,-0.0626 0.8451,1.35037 q 0.0581,0.0894 0.0224,0.14755 -0.0313,0.0581 -0.13414,0.0581 z m -1.74385,-1.65442 h 0.7199 q 0.2504,0 0.4382,-0.0984 0.19227,-0.10284 0.29958,-0.27722 0.11179,-0.17439 0.11179,-0.40243 0,-0.23251 -0.11179,-0.41137 -0.10731,-0.17885 -0.29958,-0.27723 -0.1878,-0.10284 -0.4382,-0.10284 h -0.7199 z"
       id="text64"
       style="font-weight:300;font-size:4.4714px;line-height:23.6;font-family:Comfortaa;-inkscape-font-specification:'Comfortaa Light';letter-spacing:0px;stroke-width:0.046577;fill:#ffffff"
       inkscape:label="w"
       transform="scale(0.89769525,1.1139638)"
       aria-label="R" /><path
       d="m 169.23682,102.21813 q -0.34116,0 -0.63075,-0.11901 -0.28959,-0.11901 -0.50778,-0.33323 -0.21421,-0.21818 -0.33322,-0.50777 -0.11901,-0.2896 -0.11901,-0.63076 0,-0.34116 0.11901,-0.62678 0.11901,-0.289595 0.33322,-0.503813 0.21819,-0.218185 0.50778,-0.337195 0.28959,-0.11901 0.63075,-0.11901 0.34116,0 0.62679,0.11901 0.28959,0.11901 0.50381,0.337195 0.21818,0.214218 0.33719,0.503813 0.11901,0.28562 0.11901,0.62678 0,0.34116 -0.11901,0.63076 -0.11901,0.28959 -0.33719,0.50777 -0.21422,0.21422 -0.50381,0.33323 -0.28563,0.11901 -0.62679,0.11901 z m 0,-0.23802 q 0.28563,0 0.53158,-0.0992 0.24595,-0.10314 0.42844,-0.28562 0.18645,-0.18645 0.28562,-0.4324 0.10314,-0.24596 0.10314,-0.53555 0,-0.28562 -0.10314,-0.53158 -0.0992,-0.24595 -0.28562,-0.428432 -0.18249,-0.186449 -0.42844,-0.285624 -0.24595,-0.103142 -0.53158,-0.103142 -0.28959,0 -0.53554,0.103142 -0.24596,0.09917 -0.43241,0.285624 -0.18248,0.182482 -0.28562,0.428432 -0.0992,0.24596 -0.0992,0.53158 0,0.28959 0.0992,0.53555 0.10314,0.24595 0.28562,0.4324 0.18645,0.18248 0.43241,0.28562 0.24595,0.0992 0.53554,0.0992 z"
       id="text65"
       style="font-weight:300;font-size:3.967px;line-height:23.6;font-family:Comfortaa;-inkscape-font-specification:'Comfortaa Light';letter-spacing:0px;stroke-width:0.0413228;fill:#ffffff"
       inkscape:label="w"
       transform="scale(0.79643004,1.2556031)"
       aria-label="O" /><path
       d="m 179.64638,102.21813 q -0.34116,0 -0.63075,-0.11901 -0.28959,-0.11901 -0.50778,-0.33323 -0.21421,-0.21818 -0.33322,-0.50777 -0.11901,-0.2896 -0.11901,-0.63076 0,-0.34116 0.11901,-0.62678 0.11901,-0.289595 0.33322,-0.503813 0.21819,-0.218185 0.50778,-0.337195 0.28959,-0.11901 0.63075,-0.11901 0.34117,0 0.62679,0.11901 0.28959,0.11901 0.50381,0.337195 0.21818,0.214218 0.33719,0.503813 0.11901,0.28562 0.11901,0.62678 0,0.34116 -0.11901,0.63076 -0.11901,0.28959 -0.33719,0.50777 -0.21422,0.21422 -0.50381,0.33323 -0.28562,0.11901 -0.62679,0.11901 z m 0,-0.23802 q 0.28563,0 0.53158,-0.0992 0.24596,-0.10314 0.42844,-0.28562 0.18645,-0.18645 0.28562,-0.4324 0.10314,-0.24596 0.10314,-0.53555 0,-0.28562 -0.10314,-0.53158 -0.0992,-0.24595 -0.28562,-0.428432 -0.18248,-0.186449 -0.42844,-0.285624 -0.24595,-0.103142 -0.53158,-0.103142 -0.28959,0 -0.53554,0.103142 -0.24596,0.09917 -0.4324,0.285624 -0.18249,0.182482 -0.28563,0.428432 -0.0992,0.24596 -0.0992,0.53158 0,0.28959 0.0992,0.53555 0.10314,0.24595 0.28563,0.4324 0.18644,0.18248 0.4324,0.28562 0.24595,0.0992 0.53554,0.0992 z"
       id="text66"
       style="font-weight:300;font-size:3.967px;line-height:23.6;font-family:Comfortaa;-inkscape-font-specification:'Comfortaa Light';letter-spacing:0px;stroke-width:0.0413228;fill:#ffffff"
       inkscape:label="w"
       transform="scale(0.79643003,1.2556031)"
       aria-label="O" /><path
       d="m 191.06986,101.17316 q -0.0511,0 -0.0864,-0.0314 -0.0314,-0.0353 -0.0314,-0.0864 v -2.832069 q 0,-0.05106 0.0314,-0.08249 0.0353,-0.03535 0.0864,-0.03535 0.0786,0 0.10605,0.05892 l 1.3905,2.745649 h -0.13748 l 1.37086,-2.745649 q 0.0354,-0.05892 0.10606,-0.05892 0.0511,0 0.0825,0.03535 0.0314,0.03142 0.0314,0.08249 v 2.832069 q 0,0.0511 -0.0314,0.0864 -0.0314,0.0314 -0.0825,0.0314 -0.0511,0 -0.0864,-0.0314 -0.0354,-0.0353 -0.0354,-0.0864 v -2.549255 l 0.0589,0.01964 -1.25302,2.553185 q -0.0275,0.055 -0.10213,0.055 -0.0707,0 -0.10998,-0.0746 l -1.26873,-2.533545 0.0786,-0.01964 v 2.549255 q 0,0.0511 -0.0353,0.0864 -0.0314,0.0314 -0.0825,0.0314 z"
       id="text67"
       style="font-weight:300;font-size:3.92797px;line-height:23.6;font-family:Comfortaa;-inkscape-font-specification:'Comfortaa Light';letter-spacing:0px;stroke-width:0.0409162;fill:#ffffff"
       inkscape:label="w"
       transform="scale(0.78859421,1.2680793)"
       aria-label="M" /><path
       d="m 180.85434,113.73947 q -0.27809,0 -0.51204,-0.075 -0.22953,-0.0795 -0.39727,-0.22071 -0.16774,-0.14566 -0.26485,-0.33989 -0.0265,-0.053 -0.004,-0.10152 0.0265,-0.0486 0.0839,-0.0662 0.0486,-0.0177 0.0971,0.004 0.0486,0.0221 0.075,0.0706 0.0794,0.14125 0.20746,0.24719 0.13242,0.10594 0.30899,0.16332 0.18098,0.053 0.4061,0.053 0.25161,0 0.43258,-0.0839 0.1854,-0.0839 0.28251,-0.24719 0.10152,-0.16332 0.10152,-0.39727 0,-0.29133 -0.21187,-0.48997 -0.20747,-0.20305 -0.63564,-0.26043 -0.49438,-0.0706 -0.77247,-0.31782 -0.27809,-0.25161 -0.27809,-0.60915 0,-0.26043 0.12801,-0.45466 0.13242,-0.19422 0.36637,-0.30016 0.23836,-0.11035 0.54735,-0.11035 0.22954,0 0.42376,0.075 0.19422,0.075 0.33989,0.19864 0.14566,0.11918 0.22512,0.2516 0.0309,0.0486 0.0132,0.10594 -0.0132,0.053 -0.0706,0.075 -0.0486,0.0177 -0.0971,0.004 -0.0485,-0.0177 -0.0794,-0.0618 -0.0618,-0.0927 -0.15891,-0.18098 -0.0971,-0.0883 -0.24278,-0.14567 -0.14566,-0.0574 -0.35313,-0.0574 -0.36196,0 -0.56942,0.16332 -0.20746,0.16332 -0.20746,0.46349 0,0.1589 0.0839,0.29133 0.0883,0.12801 0.27368,0.2207 0.18539,0.0927 0.47231,0.14126 0.56942,0.0971 0.81662,0.35313 0.2516,0.2516 0.2516,0.64446 0,0.22953 -0.0795,0.41493 -0.075,0.18539 -0.22071,0.3134 -0.14125,0.12801 -0.33989,0.19864 -0.19863,0.0662 -0.44141,0.0662 z"
       id="text68"
       style="font-weight:300;font-size:4.41413px;line-height:23.6;font-family:Comfortaa;-inkscape-font-specification:'Comfortaa Light';letter-spacing:0px;stroke-width:0.0459804;fill:#ffffff"
       inkscape:label="w"
       transform="scale(0.88619834,1.1284156)"
       aria-label="S" /><path
       d="m 204.47713,109.12115 q -0.0551,0 -0.0932,-0.0339 -0.0339,-0.0381 -0.0339,-0.0932 v -3.05454 q 0,-0.0593 0.0339,-0.0932 0.0381,-0.0339 0.0932,-0.0339 h 0.8473 q 0.30927,0 0.54652,0.13557 0.24148,0.13557 0.37705,0.37705 0.13557,0.23725 0.13557,0.54651 0,0.30927 -0.13557,0.55075 -0.13557,0.24149 -0.37705,0.37706 -0.23725,0.13557 -0.54652,0.13557 h -0.72021 v 1.05913 q 0,0.0551 -0.0339,0.0932 -0.0339,0.0339 -0.0932,0.0339 z m 0.12709,-1.44043 h 0.72021 q 0.23725,0 0.41519,-0.10167 0.18217,-0.10592 0.28384,-0.28809 0.10592,-0.18217 0.10592,-0.41942 0,-0.23724 -0.10592,-0.41518 -0.10167,-0.18217 -0.28384,-0.28384 -0.17794,-0.10592 -0.41519,-0.10592 h -0.72021 z"
       id="text69"
       style="font-weight:300;font-size:4.23654px;line-height:23.6;font-family:Comfortaa;-inkscape-font-specification:'Comfortaa Light';letter-spacing:0px;stroke-width:0.0441305;fill:#ffffff"
       inkscape:label="w"
       transform="scale(0.85054491,1.1757169)"
       aria-label="P" /><path
       d="m 209.34291,111.16703 q -0.0518,0 -0.0906,-0.0345 -0.0388,-0.0388 -0.0388,-0.0949 v -3.11181 q 0,-0.0561 0.0388,-0.0906 0.0388,-0.0388 0.0906,-0.0388 0.0561,0 0.0906,0.0388 0.0388,0.0345 0.0388,0.0906 v 3.00823 h 1.77386 q 0.0604,0 0.0949,0.0345 0.0345,0.0302 0.0345,0.082 0,0.0518 -0.0345,0.0863 -0.0345,0.0302 -0.0949,0.0302 z"
       id="text70"
       style="font-weight:300;font-size:4.31597px;line-height:23.6;font-family:Comfortaa;-inkscape-font-specification:'Comfortaa Light';letter-spacing:0px;stroke-width:0.0449579;fill:#ffffff"
       inkscape:label="w"
       transform="scale(0.86649152,1.1540794)"
       aria-label="L" /></g><g
     inkscape:groupmode="layer"
     id="layer3"
     inkscape:label="escapeROOMS"
     transform="translate(-23.618713,-88.188932)"
     style="fill:#ffffff"><path
       id="text2"
       style="font-weight:300;font-size:23.69px;font-family:Comfortaa;-inkscape-font-specification:'Comfortaa Light';letter-spacing:0px;stroke-width:0.218755;fill:#ffffff"
       inkscape:label="s"
       d="m 42.936912,89.818218 c -1.105533,0 -2.084792,0.197628 -2.937632,0.592461 -0.235232,0.10652 -0.454252,0.227006 -0.660797,0.358472 v 1.911225 c 0.151634,-0.207322 0.330252,-0.396688 0.542675,-0.563914 0.742287,-0.584354 1.760701,-0.876524 3.055754,-0.876524 0.742287,0 1.373901,0.102616 1.895081,0.30793 0.52118,0.205313 0.955879,0.465657 1.303332,0.781524 0.347454,0.315867 0.631423,0.639864 0.85253,0.971524 0.110553,0.157933 0.252538,0.268155 0.426265,0.331329 0.173726,0.04738 0.347834,0.03977 0.521561,-0.0234 0.205313,-0.07897 0.331522,-0.21341 0.378902,-0.40293 0.06317,-0.205313 0.03922,-0.394867 -0.07133,-0.568594 -0.28428,-0.4738 -0.686855,-0.923699 -1.208035,-1.350119 -0.52118,-0.442213 -1.129416,-0.797568 -1.824323,-1.066055 -0.694906,-0.268487 -1.45273,-0.40293 -2.273983,-0.402929 z m -3.598429,6.51052 v 1.791891 c 0.941317,0.662318 2.154169,1.102867 3.645792,1.315956 1.531953,0.205313 2.668973,0.671355 3.41126,1.397855 0.75808,0.7107 1.137277,1.58721 1.137277,2.62957 0,0.83705 -0.18171,1.54776 -0.544957,2.13211 -0.347453,0.58435 -0.852859,1.02618 -1.516179,1.32625 -0.647527,0.30008 -1.421126,0.4502 -2.321346,0.4502 -0.80546,0 -1.532302,-0.0945 -2.179828,-0.28407 -0.620485,-0.20165 -1.163893,-0.48808 -1.632019,-0.85733 v 1.69595 c 0.331412,0.17789 0.685329,0.33327 1.063665,0.46424 0.837047,0.26848 1.753202,0.40293 2.748182,0.40293 0.868633,0 1.658009,-0.11877 2.368709,-0.35567 0.7107,-0.25269 1.318935,-0.60805 1.824322,-1.06605 0.52118,-0.45801 0.916153,-1.0186 1.18464,-1.68192 0.28428,-0.66332 0.426265,-1.40539 0.426265,-2.22664 0,-1.40561 -0.450475,-2.55861 -1.350695,-3.45883 C 46.719144,99.089165 45.258429,98.457318 43.221089,98.109865 42.194522,97.936138 41.349645,97.6834 40.686325,97.35174 40.102229,97.059691 39.653166,96.718755 39.338483,96.328738 Z"
       transform="scale(0.90559411,1.1042475)" /><path
       style="font-weight:300;font-size:20.8843px;font-family:Comfortaa;-inkscape-font-specification:'Comfortaa Light';letter-spacing:0px;stroke-width:0.192847;fill:#ffffff"
       d="m 68.743938,95.909206 q -1.670744,0 -3.153529,-0.647413 -1.461901,-0.668298 -2.589653,-1.816934 -1.127752,-1.169521 -1.775166,-2.673191 -0.647413,-1.524554 -0.647413,-3.237066 0,-1.691629 0.626529,-3.195298 0.626529,-1.524554 1.733397,-2.673191 1.127752,-1.16952 2.610537,-1.816934 1.482786,-0.668297 3.195298,-0.668297 1.441017,0 2.735844,0.459454 1.294826,0.459455 2.422579,1.399248 0.187958,0.14619 0.187958,0.417686 0,0.250612 -0.167074,0.459455 -0.167075,0.187959 -0.459455,0.187959 -0.08354,0 -0.167074,-0.02089 -0.08354,-0.04177 -0.167075,-0.08354 -0.08354,-0.06265 -0.187958,-0.14619 -0.835372,-0.751835 -1.900472,-1.085984 -1.065099,-0.334148 -2.297273,-0.334148 -1.399248,0 -2.652306,0.58476 -1.253058,0.563876 -2.213736,1.566323 -0.960677,0.981562 -1.503669,2.255504 -0.542992,1.273942 -0.542992,2.694075 0,1.461901 0.542992,2.756727 0.542992,1.294827 1.482785,2.276389 0.960678,0.981562 2.213736,1.545438 1.253058,0.542992 2.67319,0.542992 1.232174,0 2.297273,-0.375917 1.085984,-0.375918 2.025778,-1.148637 0.167074,-0.14619 0.396801,-0.104421 0.229728,0.04177 0.396802,0.208843 0.167074,0.167074 0.167074,0.43857 0,0.125306 -0.02088,0.229727 -0.02088,0.104422 -0.125306,0.208843 -1.02333,1.023331 -2.38081,1.420133 -1.336595,0.375917 -2.756728,0.375917 z"
       id="text7"
       inkscape:label="c"
       transform="scale(0.7983415,1.2525968)"
       aria-label="C" /><path
       style="font-weight:300;font-size:21.6855px;font-family:Comfortaa;-inkscape-font-specification:'Comfortaa Light';letter-spacing:0px;stroke-width:0.200246;fill:#ffffff"
       d="m 77.271795,99.371666 q -0.412024,0 -0.585508,-0.325283 -0.151799,-0.325282 0,-0.607194 l 6.570706,-15.548502 q 0.173484,-0.455396 0.628879,-0.455396 0.43371,0 0.62888,0.455396 l 6.592392,15.548502 q 0.173484,0.303597 -0.02169,0.62888 -0.195169,0.303597 -0.563823,0.303597 -0.216855,0 -0.368653,-0.08674 -0.130113,-0.108428 -0.238541,-0.325283 L 83.538904,83.758107 h 0.693936 l -6.353851,15.201534 q -0.08674,0.216855 -0.23854,0.325283 -0.151799,0.08674 -0.368654,0.08674 z m 1.604727,-4.250358 0.520452,-1.171017 h 9.021168 l 0.498766,1.171017 z"
       id="text10"
       inkscape:label="a"
       transform="scale(0.82896787,1.2063194)"
       aria-label="A" /><path
       style="font-weight:300;font-size:22.4669px;font-family:Comfortaa;-inkscape-font-specification:'Comfortaa Light';letter-spacing:0px;stroke-width:0.207461;fill:#ffffff"
       d="m 94.127919,102.95234 q -0.29207,0 -0.494272,-0.17974 -0.179735,-0.2022 -0.179735,-0.49427 V 86.079697 q 0,-0.314536 0.179735,-0.494271 0.202202,-0.179736 0.494272,-0.179736 h 4.49338 q 1.640081,0 2.898231,0.718941 1.28061,0.718941 1.99955,1.999554 0.71894,1.258147 0.71894,2.89823 0,1.640084 -0.71894,2.920697 -0.71894,1.280614 -1.99955,1.999554 -1.25815,0.718941 -2.898231,0.718941 h -3.819373 v 5.616723 q 0,0.29207 -0.179735,0.49427 -0.179735,0.17974 -0.494272,0.17974 z m 0.674007,-7.638747 h 3.819373 q 1.258146,0 2.201761,-0.539205 0.96607,-0.561673 1.50528,-1.52775 0.56167,-0.966076 0.56167,-2.224223 0,-1.258146 -0.56167,-2.201756 -0.53921,-0.966077 -1.50528,-1.505282 -0.943615,-0.561673 -2.201761,-0.561673 h -3.819373 z"
       id="text13"
       inkscape:label="p"
       transform="scale(0.85883813,1.1643638)"
       aria-label="P" /><path
       style="font-weight:300;font-size:20.8899px;font-family:Comfortaa;-inkscape-font-specification:'Comfortaa Light';letter-spacing:0px;stroke-width:0.192899;fill:#ffffff"
       d="m 118.11695,95.72583 q -0.27157,0 -0.45958,-0.167119 -0.16712,-0.188009 -0.16712,-0.459578 V 80.037515 q 0,-0.271569 0.16712,-0.438688 0.18801,-0.188009 0.45958,-0.188009 h 10.04804 q 0.25068,0 0.43869,0.188009 0.18801,0.167119 0.18801,0.438688 0,0.250679 -0.18801,0.438688 -0.18801,0.188009 -0.43869,0.188009 h -9.42135 v 6.26697 h 6.91456 q 0.27157,0 0.43869,0.188009 0.18801,0.167119 0.18801,0.438688 0,0.271569 -0.18801,0.459578 -0.16712,0.188009 -0.43869,0.188009 h -6.91456 v 6.26697 h 9.42135 q 0.25068,0 0.43869,0.188009 0.18801,0.188009 0.18801,0.438688 0,0.271569 -0.18801,0.459578 -0.18801,0.167119 -0.43869,0.167119 z"
       id="text33"
       inkscape:label="e"
       transform="scale(0.79855391,1.2522636)"
       aria-label="E" /><path
       style="font-weight:bold;font-size:23.5893px;font-family:Comfortaa;-inkscape-font-specification:'Comfortaa Bold';stroke-width:0.217825;fill:#ffffff"
       d="m 118.91707,108.0956 q -0.51896,0 -0.8728,-0.35384 -0.35384,-0.35384 -0.35384,-0.87281 V 90.898997 q 0,-0.542554 0.35384,-0.872805 0.35384,-0.353839 0.8728,-0.353839 h 4.24607 q 1.7692,0 3.13738,0.754857 1.36818,0.731269 2.12304,2.02868 0.77845,1.297412 0.77845,3.019431 0,1.604072 -0.77845,2.854305 -0.75486,1.250233 -2.12304,1.957914 -1.36818,0.70768 -3.13738,0.70768 h -3.01943 v 5.87373 q 0,0.51897 -0.35384,0.87281 -0.33025,0.35384 -0.8728,0.35384 z m 9.78956,0 q -0.33025,0 -0.61332,-0.14154 -0.25948,-0.14154 -0.4482,-0.4482 l -4.24607,-6.84089 2.38252,-0.684093 3.86864,6.227573 q 0.42461,0.68409 0.11795,1.29741 -0.30666,0.58974 -1.06152,0.58974 z m -8.56292,-9.364956 h 3.01943 q 1.08511,0 1.91074,-0.401018 0.82562,-0.424607 1.29741,-1.155876 0.47179,-0.754857 0.47179,-1.698429 0,-1.037929 -0.47179,-1.839966 -0.47179,-0.802036 -1.29741,-1.250233 -0.82563,-0.448196 -1.91074,-0.448196 h -3.01943 z"
       id="text36"
       inkscape:label="R"
       transform="scale(0.90174368,1.1089626)"
       aria-label="R" /><path
       style="font-weight:bold;font-size:21.113px;font-family:Comfortaa;-inkscape-font-specification:'Comfortaa Bold';stroke-width:0.194959;fill:#ffffff"
       d="m 157.30991,96.959253 q -1.85795,0 -3.3992,-0.612277 -1.54125,-0.63339 -2.66024,-1.752379 -1.09787,-1.140102 -1.71015,-2.681351 -0.61228,-1.562362 -0.61228,-3.420306 0,-1.857944 0.61228,-3.399193 0.61228,-1.541249 1.71015,-2.660238 1.11899,-1.140102 2.66024,-1.752379 1.54125,-0.633391 3.3992,-0.633391 1.85794,0 3.37808,0.633391 1.54125,0.612277 2.66023,1.752379 1.11899,1.118989 1.73127,2.660238 0.61228,1.541249 0.61228,3.399193 0,1.857944 -0.61228,3.420306 -0.61228,1.541249 -1.73127,2.681351 -1.11898,1.118989 -2.66023,1.752379 -1.52014,0.612277 -3.37808,0.612277 z m 0,-1.984622 q 1.37234,0 2.51244,-0.485599 1.16122,-0.506712 2.00574,-1.372345 0.84452,-0.886746 1.28789,-2.069074 0.46449,-1.182328 0.46449,-2.554673 0,-1.372345 -0.46449,-2.554673 -0.44337,-1.182328 -1.28789,-2.047961 -0.84452,-0.886746 -2.00574,-1.372345 -1.1401,-0.485599 -2.51244,-0.485599 -1.37235,0 -2.53356,0.485599 -1.14011,0.485599 -1.98463,1.372345 -0.8234,0.865633 -1.28789,2.047961 -0.46449,1.182328 -0.46449,2.554673 0,1.372345 0.46449,2.554673 0.46449,1.182328 1.28789,2.069074 0.84452,0.865633 1.98463,1.372345 1.16121,0.485599 2.53356,0.485599 z"
       id="text39"
       inkscape:label="O"
       transform="scale(0.80708201,1.2390315)"
       aria-label="O" /><path
       style="font-weight:bold;font-size:21.0627px;font-family:Comfortaa;-inkscape-font-specification:'Comfortaa Bold';stroke-width:0.194494;fill:#ffffff"
       d="m 178.69793,96.728144 q -1.85352,0 -3.3911,-0.610818 -1.53758,-0.631881 -2.6539,-1.748204 -1.09526,-1.137386 -1.70608,-2.674963 -0.61082,-1.55864 -0.61082,-3.412158 0,-1.853517 0.61082,-3.391094 0.61082,-1.537578 1.70608,-2.653901 1.11632,-1.137386 2.6539,-1.748204 1.53758,-0.631881 3.3911,-0.631881 1.85351,0 3.37003,0.631881 1.53758,0.610818 2.6539,1.748204 1.11632,1.116323 1.72714,2.653901 0.61082,1.537577 0.61082,3.391094 0,1.853518 -0.61082,3.412158 -0.61082,1.537577 -1.72714,2.674963 -1.11632,1.116323 -2.6539,1.748204 -1.51652,0.610818 -3.37003,0.610818 z m 0,-1.979894 q 1.36907,0 2.50646,-0.484442 1.15845,-0.505505 2.00095,-1.369075 0.84251,-0.884634 1.28483,-2.064145 0.46338,-1.179511 0.46338,-2.548587 0,-1.369075 -0.46338,-2.548586 -0.44232,-1.179512 -1.28483,-2.043082 -0.8425,-0.884634 -2.00095,-1.369076 -1.13739,-0.484442 -2.50646,-0.484442 -1.36908,0 -2.52753,0.484442 -1.13738,0.484442 -1.97989,1.369076 -0.82145,0.86357 -1.28483,2.043082 -0.46338,1.179511 -0.46338,2.548586 0,1.369076 0.46338,2.548587 0.46338,1.179511 1.28483,2.064145 0.84251,0.86357 1.97989,1.369075 1.15845,0.484442 2.52753,0.484442 z"
       id="text50"
       inkscape:label="O"
       transform="scale(0.80515828,1.2419918)"
       aria-label="O" /><path
       style="font-weight:bold;font-size:20.6476px;font-family:Comfortaa;-inkscape-font-specification:'Comfortaa Bold';stroke-width:0.19066;fill:#ffffff"
       d="m 197.94295,94.615128 q -0.45424,0 -0.76396,-0.309714 -0.30971,-0.309714 -0.30971,-0.763962 V 79.563027 q 0,-0.474895 0.30971,-0.763961 0.30972,-0.309714 0.76396,-0.309714 0.61943,0 0.94979,0.578133 l 6.4627,12.946045 h -0.66072 l 6.29752,-12.946045 q 0.33036,-0.578133 0.94979,-0.578133 0.45425,0 0.76396,0.309714 0.30971,0.289066 0.30971,0.763961 v 13.978425 q 0,0.454248 -0.33036,0.763962 -0.30971,0.309714 -0.74331,0.309714 -0.45425,0 -0.76396,-0.309714 -0.30972,-0.309714 -0.30972,-0.763962 V 82.536281 l 0.41295,-0.103238 -5.40967,11.025819 q -0.35101,0.536838 -0.92914,0.536838 -0.68137,0 -0.99108,-0.640076 l -5.34773,-10.716105 0.41295,-0.103238 v 11.005171 q 0,0.454248 -0.30971,0.763962 -0.30972,0.309714 -0.76397,0.309714 z"
       id="text42"
       inkscape:label="M"
       transform="scale(0.78928836,1.2669641)"
       aria-label="M" /><path
       style="font-weight:bold;font-size:23.0239px;font-family:Comfortaa;-inkscape-font-specification:'Comfortaa Bold';stroke-width:0.212604;fill:#ffffff"
       d="m 202.8516,105.73486 q -1.47353,0 -2.80892,-0.46048 -1.33539,-0.46047 -2.32541,-1.28933 -0.99003,-0.82886 -1.45051,-1.91099 -0.23024,-0.4835 0,-0.89793 0.25326,-0.41443 0.82886,-0.52955 0.41443,-0.0921 0.80584,0.13814 0.41443,0.20722 0.62164,0.64467 0.27629,0.5756 0.89794,1.0591 0.64466,0.4835 1.5426,0.78282 0.89793,0.29931 1.88796,0.29931 1.10514,0 2.0261,-0.34536 0.94398,-0.34536 1.51958,-0.99003 0.57559,-0.66769 0.57559,-1.6347 0,-1.220264 -0.967,-2.187268 -0.94398,-0.967003 -3.13125,-1.197242 -2.85496,-0.276287 -4.48966,-1.680745 -1.6347,-1.404458 -1.6347,-3.476609 0,-1.519577 0.85189,-2.578676 0.85188,-1.0591 2.30239,-1.611673 1.47353,-0.552574 3.26939,-0.552574 1.40446,0 2.44053,0.391406 1.0591,0.391407 1.84192,1.082124 0.78281,0.690717 1.35841,1.634697 0.32233,0.506525 0.25326,0.967003 -0.0461,0.437454 -0.43746,0.690717 -0.43745,0.276287 -0.94398,0.11512 -0.50652,-0.161168 -0.75978,-0.598622 -0.36839,-0.667693 -0.89794,-1.128171 -0.52955,-0.460478 -1.24329,-0.713741 -0.71374,-0.276286 -1.68074,-0.276286 -1.70377,-0.02302 -2.85496,0.644669 -1.1512,0.644669 -1.1512,2.003079 0,0.690717 0.34536,1.335386 0.36838,0.621645 1.31236,1.082123 0.967,0.460478 2.76287,0.64467 2.73984,0.276286 4.25942,1.680744 1.5426,1.381434 1.5426,3.660799 0,1.31236 -0.55257,2.27937 -0.52955,0.967 -1.45051,1.63469 -0.89793,0.64467 -2.07215,0.96701 -1.15119,0.32233 -2.39448,0.32233 z"
       id="text45"
       inkscape:label="S"
       transform="scale(0.88012947,1.1361965)"
       aria-label="S" /></g><g
     inkscape:groupmode="layer"
     id="layer5"
     inkscape:label="E-doors"
     transform="translate(-23.618713,-88.188932)"
     style="fill:#ffffff"><path
       id="path70"
       style="opacity:1;fill:#ffffff;stroke-width:0.264583"
       d="m 36.715072,88.188932 -13.096359,5.807915 11.723833,-3.57601 v 16.640333 5.36143 16.64032 l -11.723833,-3.57601 13.096359,5.80792 v -18.87223 -5.36143 z"
       inkscape:label="edge" /><path
       id="path71"
       style="opacity:1;fill:#ffffff;stroke-width:0.264583"
       d="m 32.89825,93.768953 -8.533846,2.445329 0.0057,13.725258 -0.0057,13.72578 8.533846,2.44533 v -0.67903 l -7.889957,-2.25464 v -12.32587 -0.58187 h 6.91379 v -0.0739 -0.51108 -0.0739 h -6.91379 v -0.58187 -12.325865 l 7.889957,-2.254643 z"
       inkscape:label="letter" /></g></svg>
