<svg width="86" height="16" viewBox="0 0 86 16" fill="none" xmlns="http://www.w3.org/2000/svg">
<path d="M6.7364 2.51816C5.72796 2.51816 5.42542 2.94431 5.42542 3.89346V5.46247H8.12805L7.86585 8.01937H5.42542V15.7482H2.17824V8.01937H0V5.48184H2.17824V3.95157C2.17824 1.35593 3.26735 0 6.27251 0C6.89775 0 7.54315 0.0387409 8.16839 0.116223V2.51816" fill="white"/>
<path d="M8.34988 10.2858C8.34988 7.419 9.7617 5.24951 12.7467 5.24951C14.3602 5.24951 15.3485 6.0437 15.8325 7.05097V5.48196H18.9385V15.7677H15.8124V14.218C15.3686 15.2059 14.34 15.9808 12.7265 15.9808C9.7617 15.9808 8.32971 13.8306 8.32971 10.9444M11.5971 10.9832C11.5971 12.5134 12.182 13.5401 13.6946 13.5401C15.0258 13.5401 15.6913 12.6103 15.6913 11.1381V10.0921C15.6913 8.61997 15.0056 7.69019 13.6946 7.69019C12.182 7.69019 11.5971 8.69746 11.5971 10.2471V10.9832Z" fill="white"/>
<path d="M25.6749 5.24951C26.9254 5.24951 28.1355 5.50133 28.781 5.94685L28.0549 8.15508C27.3893 7.84515 26.6431 7.69019 25.8968 7.69019C24.1421 7.69019 23.3757 8.65871 23.3757 10.3246V10.9251C23.3757 12.5909 24.1421 13.5594 25.8968 13.5594C26.6431 13.5594 27.3893 13.3851 28.0549 13.0752L28.781 15.2834C28.1355 15.7096 26.9456 15.9808 25.6749 15.9808C21.863 15.9808 20.1487 14.0243 20.1487 10.8669V10.3827C20.1487 7.2253 21.863 5.24951 25.6749 5.24951Z" fill="white"/>
<path d="M29.2045 11.0025V10.0921C29.2045 7.16719 30.939 5.24951 34.4686 5.24951C37.7965 5.24951 39.2688 7.18656 39.2688 10.0534V11.6999H32.4517C32.5122 13.1139 33.1778 13.7338 34.9728 13.7338C36.1426 13.7338 37.3124 13.5207 38.4217 13.1139L39.0066 15.2447C38.1595 15.6708 36.4048 16.0001 34.8518 16.0001C30.7374 15.9807 29.2045 14.0243 29.2045 11.0025ZM32.4517 9.64661H36.3645V9.39479C36.3645 8.2713 35.9006 7.38026 34.4686 7.38026C33.0164 7.38026 32.4517 8.2713 32.4517 9.64661Z" fill="white"/>
<path d="M51.2894 10.9446C51.2894 13.8115 49.8574 15.981 46.8724 15.981C45.2589 15.981 44.1294 15.2061 43.6857 14.2182V15.7679H40.6201V0.310249L43.8672 0.0390625V6.91558C44.3311 6.00517 45.3799 5.26909 46.8926 5.26909C49.8574 5.26909 51.3095 7.41921 51.3095 10.3054M48.0422 10.2279C48.0422 8.77514 47.4573 7.6904 45.9043 7.6904C44.5732 7.6904 43.8672 8.60081 43.8672 10.073V11.1577C43.8672 12.6299 44.5933 13.5403 45.9043 13.5403C47.4573 13.5403 48.0422 12.4555 48.0422 11.0027V10.2279Z" fill="white"/>
<path d="M52.3583 10.8669V10.3439C52.3583 7.38026 54.113 5.24951 57.6829 5.24951C61.2528 5.24951 63.0075 7.38026 63.0075 10.3439V10.8669C63.0075 13.8306 61.2528 15.9614 57.6829 15.9614C54.113 15.9614 52.3583 13.85 52.3583 10.8669ZM59.7805 10.1309C59.7805 8.77494 59.1956 7.69019 57.6829 7.69019C56.1702 7.69019 55.5854 8.77494 55.5854 10.1309V11.0994C55.5854 12.4553 56.1702 13.5401 57.6829 13.5401C59.1956 13.5401 59.7805 12.4553 59.7805 11.0994V10.1309Z" fill="white"/>
<path d="M64.1168 10.8669V10.3439C64.1168 7.38026 65.8715 5.24951 69.4414 5.24951C73.0113 5.24951 74.766 7.38026 74.766 10.3439V10.8669C74.766 13.8306 73.0113 15.9614 69.4414 15.9614C65.8715 15.9614 64.1168 13.85 64.1168 10.8669ZM71.539 10.1309C71.539 8.77494 70.9541 7.69019 69.4414 7.69019C67.9287 7.69019 67.3438 8.77494 67.3438 10.1309V11.0994C67.3438 12.4553 67.9287 13.5401 69.4414 13.5401C70.9541 13.5401 71.539 12.4553 71.539 11.0994V10.1309Z" fill="white"/>
<path d="M79.2232 10.3822L82.4301 5.46214H85.8588L82.5108 10.5566L86 15.7672H82.5511L79.2232 10.7309V15.7672H75.9962V0.3096L79.2232 0.019043" fill="white"/>
</svg>
