<svg width="83" height="24" viewBox="0 0 83 24" fill="none" xmlns="http://www.w3.org/2000/svg">
<path d="M4.27191 0.0819021C2.57306 0.793577 0.705432 2.80161 0.115583 5.3239C-0.631439 8.5189 2.47722 9.87016 2.73218 9.4277C3.03228 8.90715 2.17517 8.73112 1.99871 7.07333C1.77071 4.93216 2.76613 2.53965 4.01904 1.48988C4.25179 1.29485 4.24076 1.5663 4.24076 2.06842C4.24076 2.96632 4.19116 11.0268 4.19116 12.709C4.19116 14.9853 4.09714 15.7041 3.92823 16.4144C3.75722 17.1342 3.48214 17.6205 3.69044 17.8078C3.92334 18.0174 4.91764 17.5189 5.49324 16.7156C6.1834 15.7522 6.42496 14.5951 6.46841 13.3386C6.5208 11.8238 6.51856 9.4203 6.5208 8.04934C6.52275 6.79196 6.54189 3.11008 6.49872 0.896682C6.48811 0.353775 4.98247 -0.215817 4.27191 0.0819021Z" fill="white"/>
<path d="M64.5982 10.735C64.5434 11.9183 64.2815 12.8434 63.9564 13.4958C63.327 14.7589 62.021 15.1511 61.4665 13.3354C61.1643 12.3457 61.1502 10.6927 61.3674 9.31153C61.5886 7.90452 62.2061 6.8419 63.2286 6.93774C64.2372 7.03246 64.7092 8.33203 64.5982 10.735ZM47.5954 18.077C47.5817 20.0432 47.2722 21.7672 46.6086 22.268C45.6674 22.9779 44.4023 22.4454 44.6643 21.0106C44.8961 19.7409 45.9922 18.4443 47.598 16.86C47.598 16.86 47.6014 17.2213 47.5954 18.077ZM47.3383 10.7234C47.2807 11.8013 47.0013 12.884 46.6965 13.4958C46.0672 14.7589 44.7517 15.1537 44.2066 13.3354C43.8339 12.093 43.9231 10.4851 44.1075 9.47191C44.3469 8.1574 44.9269 6.93788 45.9687 6.93788C46.9816 6.93788 47.4811 8.04912 47.3383 10.7234ZM37.4887 10.7071C37.427 11.8485 37.2043 12.8027 36.8469 13.4958C36.2003 14.7502 34.9212 15.148 34.357 13.3354C33.9503 12.0283 34.0888 10.2462 34.258 9.28345C34.509 7.85479 35.1377 6.8419 36.1192 6.93788C37.1273 7.03637 37.6174 8.33203 37.4887 10.7071ZM82.627 12.0403C82.3806 12.0403 82.2681 12.2944 82.175 12.722C81.8523 14.2089 81.5131 14.5444 81.0757 14.5444C80.587 14.5444 80.1479 13.8083 80.035 12.3345C79.9463 11.1757 79.9605 9.04231 80.074 6.92014C80.0972 6.48411 79.9769 6.05269 78.8074 5.62783C78.3041 5.4451 77.5726 5.17602 77.2084 6.0552C76.1793 8.53908 75.7767 10.5111 75.6819 11.312C75.6771 11.3535 75.6262 11.362 75.6173 11.2651C75.5569 10.6235 75.422 9.45752 75.4052 7.00801C75.402 6.53007 75.3007 6.12324 74.7731 5.79018C74.4309 5.57405 73.3914 5.1918 73.0171 5.64656C72.6929 6.01846 72.3173 7.01933 71.9271 8.20574C71.61 9.17 71.3891 9.8223 71.3891 9.8223C71.3891 9.8223 71.3933 7.22051 71.3971 6.23361C71.3988 5.86129 71.1434 5.73723 71.0664 5.71473C70.7198 5.61428 70.0369 5.44621 69.747 5.44621C69.3893 5.44621 69.3017 5.646 69.3017 5.93729C69.3017 5.97557 69.2453 9.3628 69.2453 11.7314C69.2453 11.8344 69.2454 11.9466 69.2459 12.0659C69.048 13.1545 68.4065 14.6323 67.7088 14.6323C67.0102 14.6323 66.6807 14.0145 66.6807 11.1907C66.6807 9.54358 66.7301 8.82716 66.7544 7.63572C66.7685 6.94948 66.7958 6.4225 66.7943 6.30291C66.7891 5.93617 66.1549 5.75134 65.8599 5.68302C65.5634 5.61428 65.3058 5.58746 65.1046 5.59891C64.8199 5.61512 64.6184 5.80177 64.6184 6.05869C64.6184 6.19659 64.62 6.4584 64.62 6.4584C64.2532 5.8821 63.6634 5.481 63.2709 5.36476C62.2139 5.05084 61.1109 5.32914 60.2789 6.49319C59.6177 7.4182 59.2191 8.46587 59.0622 9.97109C58.9475 11.0716 58.985 12.1874 59.1888 13.1312C58.9425 14.196 58.4852 14.6323 57.9845 14.6323C57.2576 14.6323 56.7306 13.4459 56.7918 11.3939C56.8322 10.0443 57.1022 9.09708 57.3975 7.72681C57.5233 7.14269 57.4211 6.83687 57.1646 6.54376C56.9293 6.27496 56.428 6.13763 55.7074 6.30654C55.1941 6.42697 54.4602 6.55648 53.7888 6.65595C53.7888 6.65595 53.8293 6.49431 53.8626 6.2093C54.0372 4.7147 52.4131 4.83597 51.8949 5.31335C51.5856 5.59836 51.375 5.93449 51.2951 6.53887C51.1684 7.49797 51.9506 7.95035 51.9506 7.95035C51.694 9.1253 51.0649 10.6599 50.4154 11.7694C50.0675 12.3639 49.8014 12.8044 49.4578 13.2727C49.4566 13.0983 49.4556 12.9238 49.455 12.7503C49.4472 10.2804 49.48 8.33664 49.4946 7.63586C49.5087 6.94962 49.5362 6.43661 49.5347 6.31702C49.5308 6.04892 49.3741 5.94749 49.0483 5.81923C48.7603 5.70579 48.4197 5.62728 48.0663 5.59989C47.6204 5.56524 47.3517 5.80163 47.3587 6.08133C47.3601 6.13414 47.3601 6.4584 47.3601 6.4584C46.9934 5.8821 46.4035 5.481 46.0111 5.36476C44.954 5.05098 43.851 5.32914 43.0191 6.49319C42.358 7.4182 41.925 8.71623 41.8024 9.95964C41.6881 11.1185 41.7092 12.1032 41.8649 12.9329C41.6969 13.7636 41.2136 14.6323 40.6672 14.6323C39.9687 14.6323 39.5712 14.0145 39.5712 11.1907C39.5712 9.54358 39.6207 8.82716 39.645 7.63586C39.6591 6.94962 39.6863 6.4225 39.6848 6.30305C39.6796 5.93631 39.0455 5.75148 38.7504 5.68302C38.4417 5.61163 38.1751 5.58536 37.9704 5.60059C37.7004 5.62057 37.5105 5.8624 37.5105 6.04277V6.4584C37.1438 5.8821 36.5539 5.481 36.1615 5.36476C35.1045 5.05098 34.0076 5.33361 33.1695 6.49319C32.6229 7.24929 32.1805 8.08754 31.9528 9.94315C31.887 10.4794 31.8579 10.9816 31.8617 11.4509C31.6437 12.7838 30.6811 14.3199 29.8937 14.3199C29.433 14.3199 28.9942 13.4262 28.9942 11.5216C28.9942 8.98447 29.1512 5.37231 29.1777 5.02415C29.1777 5.02415 30.1726 5.00725 30.3653 5.00501C30.8615 4.99956 31.3109 5.0113 31.9719 4.97749C32.3034 4.96059 32.6228 3.77083 32.2807 3.62358C32.1256 3.55693 31.0296 3.49854 30.5951 3.48932C30.2297 3.48107 29.2127 3.40577 29.2127 3.40577C29.2127 3.40577 29.3039 1.00809 29.3251 0.754802C29.3432 0.543702 29.07 0.435009 28.9134 0.369067C28.5326 0.207983 28.1918 0.130864 27.7879 0.0475975C27.2299 -0.0675223 26.9768 0.0450827 26.9273 0.51604C26.8528 1.23079 26.8143 3.32432 26.8143 3.32432C26.4048 3.32432 25.006 3.24427 24.5964 3.24427C24.2159 3.24427 23.8051 4.88095 24.3313 4.90107C24.9366 4.92454 25.9915 4.94494 26.6909 4.9659C26.6909 4.9659 26.6598 8.63771 26.6598 9.77145C26.6598 9.89202 26.6603 10.0081 26.661 10.1209C26.2761 12.1269 24.9204 13.2107 24.9204 13.2107C25.2116 11.8834 24.6168 10.8867 23.5455 10.043C23.1509 9.73219 22.3717 9.1436 21.4999 8.49856C21.4999 8.49856 22.0048 8.00106 22.4526 6.99977C22.7699 6.29047 22.7836 5.47904 22.0048 5.30008C20.7181 5.00418 19.6572 5.94916 19.3407 6.958C19.0955 7.73967 19.2263 8.31946 19.7066 8.92188C19.7417 8.96589 19.7797 9.01087 19.8189 9.05614C19.5285 9.61595 19.1295 10.3697 18.7915 10.9542C17.8535 12.5771 17.1449 13.8607 16.6094 13.8607C16.1814 13.8607 16.1871 12.5574 16.1871 11.3372C16.1871 10.2853 16.2648 8.7038 16.3268 7.06641C16.3473 6.5249 16.0766 6.21643 15.6227 5.93701C15.3469 5.76726 14.7583 5.4335 14.4174 5.4335C13.9072 5.4335 12.4351 5.50293 11.0441 9.5264C10.8688 10.0335 10.5244 10.9576 10.5244 10.9576L10.5542 6.11919C10.5542 6.00575 10.4937 5.89607 10.3554 5.82105C10.1209 5.69378 9.49491 5.4335 8.93831 5.4335C8.67314 5.4335 8.5407 5.55686 8.5407 5.80275L8.49222 13.3724C8.49222 13.9478 8.50717 14.6186 8.56403 14.912C8.62075 15.2058 8.71254 15.4449 8.82612 15.5871C8.9397 15.729 9.07103 15.8373 9.28744 15.882C9.4889 15.9235 10.5923 16.0652 10.6496 15.6435C10.7183 15.1382 10.721 14.5917 11.3004 12.5533C12.2023 9.37984 13.3781 7.83146 13.9311 7.28156C14.0277 7.18544 14.1381 7.17972 14.1328 7.33703C14.1092 8.03278 14.0262 9.77145 13.9703 11.2483C13.8206 15.2009 14.5396 15.9336 15.5672 15.9336C16.3533 15.9336 17.4615 15.1525 18.6494 13.1752C19.39 11.9429 20.1091 10.7347 20.6258 9.86393C20.9858 10.1973 21.3898 10.5559 21.7936 10.9391C22.7319 11.8296 23.0399 12.6758 22.8355 13.4786C22.6792 14.0924 22.0905 14.7248 21.0427 14.1101C20.7373 13.9307 20.6069 13.7921 20.2998 13.59C20.1348 13.4814 19.8829 13.4489 19.7319 13.5627C19.3396 13.8585 19.1152 14.2347 18.9871 14.7005C18.8625 15.1537 19.3164 15.3933 19.787 15.6029C20.1921 15.7832 21.0629 15.9467 21.6183 15.9653C23.7821 16.0377 25.5154 14.9205 26.7221 12.0389C26.9381 14.5277 27.8574 15.9358 29.4545 15.9358C30.5223 15.9358 31.5929 14.5556 32.061 13.1978C32.1954 13.7513 32.3944 14.2326 32.6513 14.6397C33.882 16.5896 36.2695 16.17 37.4687 14.5141C37.8395 14.0025 37.896 13.8187 37.896 13.8187C38.0709 15.3821 39.3299 15.9284 40.0508 15.9284C40.8582 15.9284 41.6918 15.5467 42.2761 14.2314C42.3446 14.3741 42.4193 14.5105 42.5009 14.6397C43.7316 16.5896 46.1191 16.17 47.3183 14.5141C47.3749 14.4365 47.4239 14.366 47.4668 14.3028L47.502 15.3298C47.502 15.3298 46.8179 15.9573 46.3979 16.3424C44.5472 18.0386 43.1413 19.3251 43.0379 20.8234C42.9063 22.7337 44.4547 23.4437 45.628 23.5368C46.8717 23.6356 47.9386 22.9479 48.5934 21.9856C49.1697 21.1385 49.547 19.3155 49.5193 17.5149C49.5083 16.7939 49.4901 15.8771 49.4758 14.8944C50.1255 14.14 50.8574 13.1863 51.5314 12.0704C52.2658 10.854 53.0529 9.22058 53.456 7.94937C53.456 7.94937 54.1399 7.95524 54.8697 7.90746C55.1032 7.89223 55.1702 7.93987 55.1271 8.11101C55.0749 8.31778 54.205 11.6733 54.9989 13.9086C55.5424 15.4389 56.7675 15.9312 57.4939 15.9312C58.3441 15.9312 59.1575 15.2891 59.5934 14.3356C59.6459 14.4419 59.7008 14.5447 59.7608 14.6397C60.9915 16.5896 63.3706 16.1674 64.5782 14.5141C64.8508 14.1411 65.0054 13.8187 65.0054 13.8187C65.2646 15.4368 66.5229 15.9366 67.2437 15.9366C67.9945 15.9366 68.707 15.6289 69.2851 14.261C69.3093 14.8633 69.3473 15.3557 69.4074 15.511C69.444 15.606 69.6573 15.7251 69.8125 15.7827C70.4993 16.0374 71.1998 15.9169 71.459 15.8646C71.6385 15.8282 71.7785 15.6842 71.7976 15.3123C71.8479 14.3357 71.8171 12.695 72.1131 11.4755C72.61 9.42902 73.0736 8.6352 73.2935 8.2422C73.4166 8.02202 73.5554 7.98569 73.5605 8.21873C73.5708 8.69024 73.5943 10.0749 73.7868 11.9353C73.9282 13.3034 74.1171 14.1122 74.2622 14.3681C74.6765 15.1001 75.1881 15.1347 75.6047 15.1347C75.8697 15.1347 76.4239 15.0615 76.3743 14.5957C76.3502 14.3687 76.3925 12.9656 76.8825 10.9495C77.2024 9.63286 77.7358 8.44338 77.9282 8.00833C77.9992 7.84794 78.0321 7.97438 78.031 7.99897C77.9905 8.90567 77.8995 11.8714 78.2689 13.4934C78.7696 15.6908 80.2181 15.9366 80.7229 15.9366C81.8005 15.9366 82.6818 15.117 82.9786 12.9602C83.0502 12.4411 82.9443 12.0403 82.627 12.0403Z" fill="white"/>
</svg>
