<svg width="72" height="16" viewBox="0 0 72 16" fill="none" xmlns="http://www.w3.org/2000/svg">
<path d="M22.3419 2.50549C22.0752 1.52001 21.3054 0.750186 20.3199 0.483517C18.547 0 11.4115 0 11.4115 0C11.4115 0 4.27594 0.014652 2.50304 0.498169C1.51755 0.764838 0.747733 1.53466 0.481063 2.52015C-0.0552003 5.67033 -0.263259 10.4703 0.495715 13.4945C0.762385 14.48 1.53221 15.2498 2.51769 15.5165C4.29059 16 11.4261 16 11.4261 16C11.4261 16 18.5616 16 20.3345 15.5165C21.32 15.2498 22.0899 14.48 22.3565 13.4945C22.9221 10.3399 23.0964 5.54286 22.3419 2.50549Z" fill="#FF0000"/>
<path d="M9.14038 11.4289L15.0598 8.00035L9.14038 4.57178V11.4289Z" fill="white"/>
<path d="M68.6423 4.64502C69.4188 4.64502 70.0049 4.79154 70.4151 5.06993C70.8254 5.34832 71.1184 5.78788 71.2943 6.38861C71.4701 6.98935 71.5434 7.80986 71.5434 8.8648V10.5791H67.7778V11.1066L67.8364 12.5571C67.8804 12.8795 67.9536 13.1139 68.0708 13.2604C68.188 13.4069 68.3785 13.4802 68.6276 13.4802C68.9646 13.4802 69.199 13.3483 69.3162 13.0846C69.4481 12.8208 69.5067 12.3813 69.5214 11.7806L71.4701 11.8978C71.4847 11.9857 71.4847 12.1029 71.4847 12.2494C71.4847 13.1725 71.2357 13.8611 70.7228 14.3154C70.21 14.7696 69.5067 15.004 68.5836 15.004C67.4701 15.004 66.6935 14.6523 66.254 13.9637C65.8144 13.2751 65.58 12.1908 65.58 10.7403V8.96737C65.6298 6.47653 66.0679 4.65235 68.6423 4.64502ZM41.5507 4.8355V12.1762C41.5507 12.6157 41.5946 12.9381 41.6972 13.1285C41.9053 13.5359 42.4445 13.4318 42.7375 13.2311C42.9067 13.1167 43.043 12.9602 43.1331 12.7769V4.8355H45.3749V14.8428H43.6166L43.4261 13.6121H43.3822C42.8987 14.5351 42.1807 15.004 41.2283 15.004C39.7625 15.0003 39.4039 13.9443 39.3185 12.8717L39.313 12.796C39.3018 12.6319 39.2966 12.468 39.2943 12.308V4.8355H41.5507ZM53.1111 4.8355V12.1762C53.1111 12.6157 53.1551 12.9381 53.2576 13.1285C53.4657 13.5359 54.0049 13.4318 54.2979 13.2311C54.4671 13.1167 54.6035 12.9602 54.6935 12.7769V4.8355H56.9353V14.8428H55.1771L54.9866 13.6121H54.9426C54.4591 14.5351 53.7412 15.004 52.7888 15.004C51.3229 15.0003 50.9644 13.9443 50.879 12.8717L50.8734 12.796C50.8622 12.6319 50.857 12.468 50.8547 12.308V4.8355H53.1111ZM35.0452 4.64502C35.7778 4.64502 36.3785 4.79154 36.8181 5.09924C37.2576 5.40693 37.5946 5.87579 37.7998 6.52048C38.0049 7.16517 38.1075 8.02964 38.1075 9.09924V10.5498C38.1075 11.6194 38.0049 12.4692 37.7998 13.1139C37.5946 13.7586 37.2723 14.2274 36.8181 14.5351C36.3639 14.8282 35.7485 14.9893 34.9866 14.9893C34.1954 15.004 33.58 14.8428 33.1258 14.5498C32.6716 14.2421 32.3492 13.7732 32.1587 13.1285C31.9683 12.4839 31.8804 11.634 31.8804 10.5644V9.11389C31.8804 8.04429 31.9829 7.16517 32.2027 6.52048C32.4225 5.86114 32.7595 5.39228 33.2283 5.09924C33.6972 4.8062 34.2979 4.64502 35.0452 4.64502ZM60.4518 0.630371V5.9051H60.4664C60.6716 5.52414 60.9353 5.21645 61.3016 4.98202C61.6437 4.75193 62.0468 4.62946 62.4591 4.63037C63.0012 4.63037 63.4115 4.77689 63.7192 5.05528C64.0269 5.34832 64.2467 5.80253 64.3785 6.43257C64.5063 7.04292 64.579 7.88702 64.5834 8.95157L64.5836 9.05528V10.6377C64.5836 12.1176 64.3932 13.2165 64.0415 13.9197C63.6752 14.623 63.1184 14.9747 62.3565 14.9747C61.9316 14.9747 61.5507 14.8721 61.199 14.6817C60.8878 14.5003 60.6301 14.2403 60.4515 13.9283L60.4225 13.8758H60.3785L60.1441 14.8282H58.2833V0.630371H60.4518ZM51.4847 1.14319V2.96004H49.2576V14.8428H47.0598V2.96004H44.8181V1.14319H51.4847ZM27.3236 1.14319L27.3248 1.14871C27.3463 1.244 27.6426 2.56101 27.9683 4.09533L27.9941 4.2169C28.007 4.27788 28.02 4.33917 28.0329 4.40069L28.0589 4.52404C28.0632 4.54464 28.0675 4.56526 28.0719 4.58591L28.0979 4.70999C28.1022 4.7307 28.1065 4.75142 28.1109 4.77216L28.1368 4.89673L28.1746 5.07879C28.3945 6.14129 28.6045 7.20693 28.7302 7.97103H28.7888C28.9092 7.28558 29.084 6.40845 29.2704 5.51295L29.3193 5.27904C29.3439 5.16198 29.3685 5.04488 29.3933 4.9281L29.4317 4.74676C29.7904 3.05973 30.1473 1.48368 30.2137 1.19147L30.218 1.1726C30.2224 1.15323 30.2247 1.14319 30.2247 1.14319H32.4664L29.873 10.3886V14.8282H27.6606V10.4033H27.6459L25.0818 1.14319H27.3236ZM35.0012 6.19814C34.6935 6.19814 34.4884 6.35931 34.3565 6.6963C34.2247 7.0333 34.1661 7.54612 34.1661 8.26407V11.3849C34.1661 12.1175 34.2247 12.6597 34.3419 12.982C34.4591 13.3044 34.6789 13.4655 35.0012 13.4655C35.3089 13.4655 35.5287 13.3044 35.6606 12.982C35.7924 12.6597 35.851 12.1175 35.851 11.3849V8.26407C35.851 7.54612 35.7924 7.01865 35.6606 6.6963C35.5287 6.35931 35.3089 6.19814 35.0012 6.19814ZM60.8474 6.49118C60.6688 6.65601 60.5418 6.85948 60.4662 7.11365L60.4518 7.16517V12.8502C60.6335 13.1578 60.8913 13.363 61.3456 13.3776C61.58 13.3776 61.7705 13.2897 61.917 13.1139C62.0635 12.9381 62.1661 12.645 62.2247 12.2348C62.2809 11.8409 62.3102 11.2985 62.3124 10.6076L62.3126 10.5205V9.21645C62.3126 8.42524 62.2833 7.82451 62.2393 7.3996C62.1807 6.97469 62.1075 6.667 61.9756 6.49118C61.7206 6.12488 61.1697 6.12927 60.8474 6.49118ZM68.5983 6.15418C68.3492 6.16883 68.1734 6.24209 68.0708 6.37396C67.9536 6.52048 67.8804 6.74026 67.8364 7.06261C67.7933 7.3785 67.7784 8.48242 67.7778 8.52645L67.7778 9.24576H69.4188L69.4187 8.61139L69.4187 8.6236C69.4179 8.84538 69.4133 8.49486 69.4031 8.06462L69.4017 8.00683C69.3925 7.62865 69.379 7.20703 69.3602 7.06261C69.3162 6.72561 69.243 6.49118 69.1258 6.35931C69.0086 6.22744 68.8327 6.15418 68.5983 6.15418Z" fill="white"/>
</svg>
